{
  "accessors": [
    {
      "bufferView": 0,
      "componentType": 5126,
      "count": 2580,
      "type": "VEC3",
      "max": [
        0.024298574775457382,
        0.14684554934501648,
        0.09360010176897049
      ],
      "min": [
        -0.024298574775457382,
        -0.14684554934501648,
        -0.089312560856342316
      ]
    },
    {
      "bufferView": 1,
      "componentType": 5126,
      "count": 2580,
      "type": "VEC3",
      "max": [
        1.0,
        1.0,
        1.0
      ],
      "min": [
        -1.0,
        -1.0,
        -1.0
      ]
    },
    {
      "bufferView": 2,
      "componentType": 5126,
      "count": 2580,
      "type": "VEC4",
      "max": [
        1.0,
        1.0,
        0.99870729446411133,
        1.0
      ],
      "min": [
        -1.0,
        -1.0,
        -0.99999749660491943,
        -1.0
      ]
    },
    {
      "bufferView": 3,
      "componentType": 5126,
      "count": 2580,
      "type": "VEC2",
      "max": [
        0.99889999628067017,
        0.99489998817443848
      ],
      "min": [
        0.00279999990016222,
        0.0049000000581145287
      ]
    },
    {
      "bufferView": 4,
      "componentType": 5125,
      "count": 8265,
      "type": "SCALAR",
      "max": [
        2579.0
      ],
      "min": [
        0.0
      ]
    },
    {
      "bufferView": 5,
      "componentType": 5126,
      "count": 1118,
      "type": "VEC3",
      "max": [
        0.016102010384202003,
        0.138058602809906,
        0.027809809893369675
      ],
      "min": [
        -0.016102010384202003,
        -0.13805858790874481,
        -0.027809800580143929
      ]
    },
    {
      "bufferView": 6,
      "componentType": 5126,
      "count": 1118,
      "type": "VEC3",
      "max": [
        1.0,
        1.0,
        1.0
      ],
      "min": [
        -1.0,
        -1.0,
        -1.0
      ]
    },
    {
      "bufferView": 7,
      "componentType": 5126,
      "count": 1118,
      "type": "VEC4",
      "max": [
        1.0,
        1.0,
        0.9999319314956665,
        1.0
      ],
      "min": [
        -1.0,
        -1.0,
        -0.99922502040863037,
        -1.0
      ]
    },
    {
      "bufferView": 8,
      "componentType": 5126,
      "count": 1118,
      "type": "VEC2",
      "max": [
        0.99229997396469116,
        0.99210000038146973
      ],
      "min": [
        0.0026000000070780516,
        0.0032999999821186066
      ]
    },
    {
      "bufferView": 9,
      "componentType": 5125,
      "count": 3495,
      "type": "SCALAR",
      "max": [
        1117.0
      ],
      "min": [
        0.0
      ]
    },
    {
      "bufferView": 10,
      "componentType": 5126,
      "count": 148,
      "type": "VEC3",
      "max": [
        0.0052031339146196842,
        0.014212312176823616,
        0.017543544992804527
      ],
      "min": [
        -0.0052031339146196842,
        -0.014212321490049362,
        -0.017543524503707886
      ]
    },
    {
      "bufferView": 11,
      "componentType": 5126,
      "count": 148,
      "type": "VEC3",
      "max": [
        1.0,
        0.97947579622268677,
        0.99753892421722412
      ],
      "min": [
        -1.0,
        -0.99676954746246338,
        -0.95773482322692871
      ]
    },
    {
      "bufferView": 12,
      "componentType": 5126,
      "count": 148,
      "type": "VEC4",
      "max": [
        0.12081029266119003,
        0.99121242761611938,
        0.97947579622268677,
        -1.0
      ],
      "min": [
        -0.11919386684894562,
        -0.99996042251586914,
        -0.9986121654510498,
        -1.0
      ]
    },
    {
      "bufferView": 13,
      "componentType": 5126,
      "count": 148,
      "type": "VEC2",
      "max": [
        0.36750000715255737,
        0.92589998245239258
      ],
      "min": [
        0.01360000018030405,
        0.63830000162124634
      ]
    },
    {
      "bufferView": 14,
      "componentType": 5125,
      "count": 510,
      "type": "SCALAR",
      "max": [
        147.0
      ],
      "min": [
        0.0
      ]
    },
    {
      "bufferView": 15,
      "componentType": 5126,
      "count": 161,
      "type": "VEC3",
      "max": [
        0.0058283391408622265,
        0.024149680510163307,
        0.025072669610381126
      ],
      "min": [
        -0.0058283391408622265,
        -0.024149684235453606,
        -0.025072678923606873
      ]
    },
    {
      "bufferView": 16,
      "componentType": 5126,
      "count": 161,
      "type": "VEC3",
      "max": [
        1.0,
        0.9828646183013916,
        0.99148225784301758
      ],
      "min": [
        -1.0,
        -0.99997603893280029,
        -0.97047823667526245
      ]
    },
    {
      "bufferView": 17,
      "componentType": 5126,
      "count": 161,
      "type": "VEC4",
      "max": [
        0.00560152530670166,
        0.83101570606231689,
        0.94769388437271118,
        1.0
      ],
      "min": [
        -1.0,
        -0.8405689001083374,
        -0.97218000888824463,
        -1.0
      ]
    },
    {
      "bufferView": 18,
      "componentType": 5126,
      "count": 161,
      "type": "VEC2",
      "max": [
        0.6841999888420105,
        0.92479997873306274
      ],
      "min": [
        0.0071000000461936,
        0.60290002822875977
      ]
    },
    {
      "bufferView": 19,
      "componentType": 5125,
      "count": 510,
      "type": "SCALAR",
      "max": [
        160.0
      ],
      "min": [
        0.0
      ]
    },
    {
      "bufferView": 20,
      "componentType": 5126,
      "count": 486,
      "type": "VEC3",
      "max": [
        0.017527980729937553,
        0.035121142864227295,
        0.077811442315578461
      ],
      "min": [
        -0.017527980729937553,
        -0.03512115404009819,
        -0.077811442315578461
      ]
    },
    {
      "bufferView": 21,
      "componentType": 5126,
      "count": 486,
      "type": "VEC3",
      "max": [
        1.0,
        1.0,
        1.0
      ],
      "min": [
        -1.0,
        -1.0,
        -1.0
      ]
    },
    {
      "bufferView": 22,
      "componentType": 5126,
      "count": 486,
      "type": "VEC4",
      "max": [
        1.0,
        0.999995231628418,
        1.0,
        -1.0
      ],
      "min": [
        -1.0,
        -0.999995231628418,
        -1.0,
        -1.0
      ]
    },
    {
      "bufferView": 23,
      "componentType": 5126,
      "count": 486,
      "type": "VEC2",
      "max": [
        0.99269998073577881,
        0.99070000648498535
      ],
      "min": [
        0.013100000098347664,
        0.39509999752044678
      ]
    },
    {
      "bufferView": 24,
      "componentType": 5125,
      "count": 1752,
      "type": "SCALAR",
      "max": [
        485.0
      ],
      "min": [
        0.0
      ]
    },
    {
      "bufferView": 25,
      "componentType": 5126,
      "count": 4,
      "type": "MAT4"
    },
    {
      "bufferView": 26,
      "componentType": 5123,
      "count": 2580,
      "type": "VEC4",
      "max": [
        0.0,
        3.0,
        0.0,
        0.0
      ],
      "min": [
        0.0,
        0.0,
        0.0,
        0.0
      ]
    },
    {
      "bufferView": 27,
      "componentType": 5126,
      "count": 2580,
      "type": "VEC4",
      "max": [
        1.0,
        0.0450906902551651,
        0.0,
        0.0
      ],
      "min": [
        0.95490932464599609,
        0.0,
        0.0,
        0.0
      ]
    },
    {
      "bufferView": 28,
      "componentType": 5126,
      "count": 4,
      "type": "MAT4"
    },
    {
      "bufferView": 29,
      "componentType": 5123,
      "count": 1118,
      "type": "VEC4",
      "max": [
        0.0,
        0.0,
        0.0,
        0.0
      ],
      "min": [
        0.0,
        0.0,
        0.0,
        0.0
      ]
    },
    {
      "bufferView": 30,
      "componentType": 5126,
      "count": 1118,
      "type": "VEC4",
      "max": [
        1.0,
        0.0,
        0.0,
        0.0
      ],
      "min": [
        1.0,
        0.0,
        0.0,
        0.0
      ]
    },
    {
      "bufferView": 31,
      "componentType": 5126,
      "count": 3,
      "type": "MAT4"
    },
    {
      "bufferView": 32,
      "componentType": 5123,
      "count": 148,
      "type": "VEC4",
      "max": [
        1.0,
        0.0,
        0.0,
        0.0
      ],
      "min": [
        1.0,
        0.0,
        0.0,
        0.0
      ]
    },
    {
      "bufferView": 33,
      "componentType": 5126,
      "count": 148,
      "type": "VEC4",
      "max": [
        1.0,
        0.0,
        0.0,
        0.0
      ],
      "min": [
        1.0,
        0.0,
        0.0,
        0.0
      ]
    },
    {
      "bufferView": 34,
      "componentType": 5126,
      "count": 3,
      "type": "MAT4"
    },
    {
      "bufferView": 35,
      "componentType": 5123,
      "count": 161,
      "type": "VEC4",
      "max": [
        1.0,
        0.0,
        0.0,
        0.0
      ],
      "min": [
        1.0,
        0.0,
        0.0,
        0.0
      ]
    },
    {
      "bufferView": 36,
      "componentType": 5126,
      "count": 161,
      "type": "VEC4",
      "max": [
        1.0,
        0.0,
        0.0,
        0.0
      ],
      "min": [
        1.0,
        0.0,
        0.0,
        0.0
      ]
    },
    {
      "bufferView": 37,
      "componentType": 5126,
      "count": 1,
      "type": "MAT4"
    },
    {
      "bufferView": 38,
      "componentType": 5123,
      "count": 486,
      "type": "VEC4",
      "max": [
        0.0,
        0.0,
        0.0,
        0.0
      ],
      "min": [
        0.0,
        0.0,
        0.0,
        0.0
      ]
    },
    {
      "bufferView": 39,
      "componentType": 5126,
      "count": 486,
      "type": "VEC4",
      "max": [
        1.0,
        0.0,
        0.0,
        0.0
      ],
      "min": [
        1.0,
        0.0,
        0.0,
        0.0
      ]
    }
  ],
  "asset": {
    "generator": "Plattar UnityGLTF (2021.3.11f1)",
    "version": "2.0"
  },
  "buffers": [
    {
      "uri": "Pistol1 [PickUp].bin",
      "byteLength": 382584
    }
  ],
  "bufferViews": [
    {
      "buffer": 0,
      "byteLength": 30960
    },
    {
      "buffer": 0,
      "byteOffset": 30960,
      "byteLength": 30960
    },
    {
      "buffer": 0,
      "byteOffset": 61920,
      "byteLength": 41280
    },
    {
      "buffer": 0,
      "byteOffset": 103200,
      "byteLength": 20640
    },
    {
      "buffer": 0,
      "byteOffset": 123840,
      "byteLength": 33060
    },
    {
      "buffer": 0,
      "byteOffset": 156900,
      "byteLength": 13416
    },
    {
      "buffer": 0,
      "byteOffset": 170316,
      "byteLength": 13416
    },
    {
      "buffer": 0,
      "byteOffset": 183732,
      "byteLength": 17888
    },
    {
      "buffer": 0,
      "byteOffset": 201620,
      "byteLength": 8944
    },
    {
      "buffer": 0,
      "byteOffset": 210564,
      "byteLength": 13980
    },
    {
      "buffer": 0,
      "byteOffset": 224544,
      "byteLength": 1776
    },
    {
      "buffer": 0,
      "byteOffset": 226320,
      "byteLength": 1776
    },
    {
      "buffer": 0,
      "byteOffset": 228096,
      "byteLength": 2368
    },
    {
      "buffer": 0,
      "byteOffset": 230464,
      "byteLength": 1184
    },
    {
      "buffer": 0,
      "byteOffset": 231648,
      "byteLength": 2040
    },
    {
      "buffer": 0,
      "byteOffset": 233688,
      "byteLength": 1932
    },
    {
      "buffer": 0,
      "byteOffset": 235620,
      "byteLength": 1932
    },
    {
      "buffer": 0,
      "byteOffset": 237552,
      "byteLength": 2576
    },
    {
      "buffer": 0,
      "byteOffset": 240128,
      "byteLength": 1288
    },
    {
      "buffer": 0,
      "byteOffset": 241416,
      "byteLength": 2040
    },
    {
      "buffer": 0,
      "byteOffset": 243456,
      "byteLength": 5832
    },
    {
      "buffer": 0,
      "byteOffset": 249288,
      "byteLength": 5832
    },
    {
      "buffer": 0,
      "byteOffset": 255120,
      "byteLength": 7776
    },
    {
      "buffer": 0,
      "byteOffset": 262896,
      "byteLength": 3888
    },
    {
      "buffer": 0,
      "byteOffset": 266784,
      "byteLength": 7008
    },
    {
      "buffer": 0,
      "byteOffset": 273792,
      "byteLength": 256
    },
    {
      "buffer": 0,
      "byteOffset": 274048,
      "byteLength": 20640
    },
    {
      "buffer": 0,
      "byteOffset": 294688,
      "byteLength": 41280
    },
    {
      "buffer": 0,
      "byteOffset": 335968,
      "byteLength": 256
    },
    {
      "buffer": 0,
      "byteOffset": 336224,
      "byteLength": 8944
    },
    {
      "buffer": 0,
      "byteOffset": 345168,
      "byteLength": 17888
    },
    {
      "buffer": 0,
      "byteOffset": 363056,
      "byteLength": 192
    },
    {
      "buffer": 0,
      "byteOffset": 363248,
      "byteLength": 1184
    },
    {
      "buffer": 0,
      "byteOffset": 364432,
      "byteLength": 2368
    },
    {
      "buffer": 0,
      "byteOffset": 366800,
      "byteLength": 192
    },
    {
      "buffer": 0,
      "byteOffset": 366992,
      "byteLength": 1288
    },
    {
      "buffer": 0,
      "byteOffset": 368280,
      "byteLength": 2576
    },
    {
      "buffer": 0,
      "byteOffset": 370856,
      "byteLength": 64
    },
    {
      "buffer": 0,
      "byteOffset": 370920,
      "byteLength": 3888
    },
    {
      "buffer": 0,
      "byteOffset": 374808,
      "byteLength": 7776
    }
  ],
  "images": [
    {
      "uri": "Gun_Normals.jpg",
      "name": "Gun_Normals"
    },
    {
      "uri": "Gun_Albedo.png",
      "name": "Gun_Albedo"
    },
    {
      "uri": "Gun_Mettalic.png",
      "name": "Gun_Mettalic"
    }
  ],
  "materials": [
    {
      "pbrMetallicRoughness": {
        "baseColorTexture": {
          "index": 1
        },
        "metallicFactor": 0.99,
        "metallicRoughnessTexture": {
          "index": 2
        }
      },
      "normalTexture": {
        "index": 0
      },
      "occlusionTexture": {
        "index": 2
      },
      "name": "Hands_Gun"
    }
  ],
  "meshes": [
    {
      "primitives": [
        {
          "attributes": {
            "POSITION": 0,
            "NORMAL": 1,
            "TANGENT": 2,
            "TEXCOORD_0": 3,
            "JOINTS_0": 26,
            "WEIGHTS_0": 27
          },
          "indices": 4,
          "material": 0
        }
      ],
      "name": "Base_mesh"
    },
    {
      "primitives": [
        {
          "attributes": {
            "POSITION": 5,
            "NORMAL": 6,
            "TANGENT": 7,
            "TEXCOORD_0": 8,
            "JOINTS_0": 29,
            "WEIGHTS_0": 30
          },
          "indices": 9,
          "material": 0
        }
      ],
      "name": "Gate_mesh"
    },
    {
      "primitives": [
        {
          "attributes": {
            "POSITION": 10,
            "NORMAL": 11,
            "TANGENT": 12,
            "TEXCOORD_0": 13,
            "JOINTS_0": 32,
            "WEIGHTS_0": 33
          },
          "indices": 14,
          "material": 0
        }
      ],
      "name": "Peen_mesh"
    },
    {
      "primitives": [
        {
          "attributes": {
            "POSITION": 15,
            "NORMAL": 16,
            "TANGENT": 17,
            "TEXCOORD_0": 18,
            "JOINTS_0": 35,
            "WEIGHTS_0": 36
          },
          "indices": 19,
          "material": 0
        }
      ],
      "name": "Trigger_mesh"
    },
    {
      "primitives": [
        {
          "attributes": {
            "POSITION": 20,
            "NORMAL": 21,
            "TANGENT": 22,
            "TEXCOORD_0": 23,
            "JOINTS_0": 38,
            "WEIGHTS_0": 39
          },
          "indices": 24,
          "material": 0
        }
      ],
      "name": "Magazine_mesh"
    }
  ],
  "nodes": [
    {
      "children": [
        1,
        2,
        3,
        8,
        13
      ],
      "rotation": [
        0.0,
        0.0,
        0.0,
        -1.0
      ],
      "translation": [
        20.28,
        6.26,
        27.98
      ],
      "name": "Pistol1 [PickUp]"
    },
    {
      "rotation": [
        0.707106948,
        -1.88313891E-07,
        0.70710665,
        1.88313962E-07
      ],
      "scale": [
        2.923113,
        2.923113,
        2.923113
      ],
      "translation": [
        0.2400777,
        1.683739,
        -0.777345955
      ],
      "name": "Bn_Bushing"
    },
    {
      "rotation": [
        0.500000238,
        -0.500000238,
        0.499999821,
        -0.499999821
      ],
      "scale": [
        5.524975,
        5.524976,
        5.524976
      ],
      "translation": [
        0.240077585,
        1.57562888,
        -0.6806158
      ],
      "name": "Bn_Magazine"
    },
    {
      "children": [
        4,
        5,
        6,
        7
      ],
      "rotation": [
        -0.7071068,
        0.0,
        0.0,
        -0.7071068
      ],
      "translation": [
        0.0,
        0.0926048756,
        -0.0490942039
      ],
      "name": "Gun"
    },
    {
      "skin": 0,
      "mesh": 0,
      "rotation": [
        0.0,
        0.0,
        0.0,
        -1.0
      ],
      "translation": [
        0.0,
        -0.0001881504,
        0.005549812
      ],
      "name": "Base_mesh"
    },
    {
      "skin": 1,
      "mesh": 1,
      "rotation": [
        0.0,
        0.0,
        0.0,
        -1.0
      ],
      "translation": [
        0.000240748515,
        -0.009714393,
        -0.06705257
      ],
      "name": "Gate_mesh"
    },
    {
      "skin": 2,
      "mesh": 2,
      "rotation": [
        0.0,
        0.0,
        0.0,
        -1.0
      ],
      "translation": [
        0.0,
        0.133560672,
        -0.06929187
      ],
      "name": "Peen_mesh"
    },
    {
      "skin": 3,
      "mesh": 3,
      "rotation": [
        0.0,
        0.0,
        0.0,
        -1.0
      ],
      "translation": [
        0.0,
        0.02341114,
        -0.0230103675
      ],
      "name": "Trigger_mesh"
    },
    {
      "children": [
        9,
        10,
        11,
        12
      ],
      "rotation": [
        0.5000002,
        -0.5000002,
        0.499999821,
        -0.499999821
      ],
      "scale": [
        0.9624817,
        0.9624817,
        0.9624817
      ],
      "translation": [
        0.24007757,
        1.59196818,
        -0.686372638
      ],
      "name": "Hp_Base"
    },
    {
      "rotation": [
        -2.209822E-14,
        -1.25961744E-14,
        2.38418579E-07,
        -1.0
      ],
      "scale": [
        9.025502,
        9.025503,
        9.025503
      ],
      "translation": [
        0.0,
        0.0,
        1.90734859E-08
      ],
      "name": "Bn_Base"
    },
    {
      "rotation": [
        6.181717E-08,
        -2.75357564E-07,
        0.707106948,
        -0.7071066
      ],
      "scale": [
        4.329934,
        4.32993364,
        4.329934
      ],
      "translation": [
        -0.09644287,
        0.0782102942,
        1.14440915E-07
      ],
      "name": "Bn_Gate"
    },
    {
      "rotation": [
        -9.146716E-15,
        -9.358301E-15,
        2.384186E-07,
        -1.0
      ],
      "scale": [
        3.037058,
        3.03705859,
        3.03705859
      ],
      "translation": [
        -0.0730644241,
        -0.03934021,
        0.0
      ],
      "name": "Bn_Peen"
    },
    {
      "rotation": [
        4.37114558E-08,
        3.13916445E-07,
        -1.0,
        -2.38418565E-07
      ],
      "scale": [
        3.037058,
        3.03705859,
        3.03705859
      ],
      "translation": [
        -0.0611253344,
        0.0608004,
        7.62939436E-08
      ],
      "name": "Bn_Trigger"
    },
    {
      "skin": 4,
      "mesh": 4,
      "rotation": [
        -0.7071068,
        0.0,
        0.0,
        -0.7071068
      ],
      "translation": [
        0.0,
        0.07149306,
        0.16174604
      ],
      "name": "Magazine_mesh"
    }
  ],
  "samplers": [
    {
      "minFilter": 9729
    }
  ],
  "scene": 0,
  "scenes": [
    {
      "nodes": [
        0
      ],
      "name": "Pistol1 [PickUp]"
    }
  ],
  "skins": [
    {
      "inverseBindMatrices": 25,
      "joints": [
        9,
        11,
        10,
        12
      ]
    },
    {
      "inverseBindMatrices": 28,
      "joints": [
        10,
        9,
        11,
        12
      ]
    },
    {
      "inverseBindMatrices": 31,
      "joints": [
        9,
        11,
        10
      ]
    },
    {
      "inverseBindMatrices": 34,
      "joints": [
        9,
        12,
        10
      ]
    },
    {
      "inverseBindMatrices": 37,
      "joints": [
        2
      ]
    }
  ],
  "textures": [
    {
      "sampler": 0,
      "source": 0,
      "name": "Gun_Normals"
    },
    {
      "sampler": 0,
      "source": 1,
      "name": "Gun_Albedo"
    },
    {
      "sampler": 0,
      "source": 2,
      "name": "Gun_Mettalic"
    }
  ]
}